#!OML:ASF H:\Terrain\Patient Classification 1\Walking\liu\liu.ASF
:FULLY-SPECIFIED
:DEGREES
469
root 10.879000 17.396500 29.489799 3.963020 4.259900 2.837250
lowerback -50.312199 -39.936901 -39.875801
upperback 3.341770 -51.498299 18.994301
thorax 36.914898 -26.596601 37.568001
lowerneck -226.679001 -28.412399 -101.325996
upperneck 243.775009 -32.968098 100.800003
head 121.410995 -11.063600 49.933098
rclavicle -0.000000 -0.000000
rhumerus -453.748016 105.343002 -865.253967
rradius 387.962006
rwrist -198.630005
rhand -251.513992 -405.419983
rfingers 71.250198
rthumb 13.653200 -705.174011
lclavicle -0.000000 -0.000000
lhumerus -121.175003 -196.735001 848.937012
lradius 272.561005
lwrist 50.978897
lhand -147.231995 -246.896988
lfingers 71.250198
lthumb 114.317001 49.786499
rfemur -329.002991 10.355999 160.435013
rtibia 497.187012
rfoot -196.919998 -102.673996
rtoes -155.613007
lfemur -80.735504 25.136499 -284.559998
ltibia 228.201996
lfoot -174.931000 37.632500
ltoes 36.228001
470
root 10.887000 17.375700 29.619801 4.002940 4.359340 3.099480
lowerback -44.097401 -40.416100 -40.382999
upperback -2.925520 -52.324501 18.018400
thorax 26.960699 -26.706100 37.466999
lowerneck -220.937012 -28.388901 -101.309006
upperneck 248.673996 -33.293900 98.884697
head 122.186005 -11.632200 49.277100
rclavicle -0.000000 -0.000000
rhumerus -467.028015 103.983002 -865.848022
rradius 389.191010
rwrist -197.703003
rhand -255.377991 -395.042999
rfingers 71.250198
rthumb 9.921610 -694.817993
lclavicle -0.000000 -0.000000
lhumerus -127.791992 -197.866989 850.681030
lradius 277.179993
lwrist 52.496399
lhand -149.140991 -248.473999
lfingers 71.250198
lthumb 112.475998 48.310699
rfemur -332.985992 9.339570 156.951996
rtibia 482.700012
rfoot -196.809006 -99.775398
rtoes -152.629990
lfemur -71.412399 25.177601 -287.196014
ltibia 220.059998
lfoot -177.210007 35.919197
ltoes 35.666599
471
root 10.890800 17.374001 29.747999 3.997930 4.515110 2.646830
lowerback -54.179703 -39.604900 -33.669601
upperback 4.706080 -51.272202 17.864300
thorax 39.818798 -26.403900 32.646099
lowerneck -227.579987 -30.735399 -101.893997
upperneck 245.845001 -36.049599 100.481995
head 122.800995 -12.534300 49.483299
rclavicle -0.000000 -0.000000
rhumerus -457.638000 95.358597 -861.874023
rradius 389.374023
rwrist -193.535004
rhand -264.575989 -362.075012
rfingers 71.250198
rthumb 1.038010 -661.872009
lclavicle -0.000000 -0.000000
lhumerus -110.166000 -206.742004 844.605042
lradius 280.442993
lwrist 58.864498
lhand -152.320999 -247.709015
lfingers 71.250198
lthumb 109.408997 49.240799
rfemur -337.359009 10.044800 161.737000
rtibia 468.119995
rfoot -194.300995 -102.011993
rtoes -176.795990
lfemur -62.005100 25.646702 -281.628998
ltibia 210.802994
lfoot -177.535995 34.051899
ltoes 28.698101
472
root 10.893000 17.385799 29.868299 4.040920 4.571840 2.765800
lowerback -62.497501 -40.304100 -35.078800
upperback 11.915600 -51.841602 17.351400
thorax 52.178703 -26.996099 31.969700
lowerneck -233.441010 -31.433300 -104.110001
upperneck 241.042999 -36.788002 105.572998
head 122.341003 -12.236900 51.602997
rclavicle 0.000000 -0.000000
rhumerus -447.615021 90.459991 -858.099976
rradius 390.530029
rwrist -189.671005
rhand -280.690002 -297.824982
rfingers 71.250198
rthumb -14.525599 -597.572998
lclavicle 0.000000 -0.000000
lhumerus -92.499199 -209.673004 837.941956
lradius 282.441986
lwrist 64.745697
lhand -154.778000 -248.080002
lfingers 71.250198
lthumb 107.038002 48.993202
rfemur -343.454010 14.171100 158.695007
rtibia 453.121979
rfoot -193.498993 -103.373001
rtoes -186.660995
lfemur -53.384800 26.849998 -282.273010
ltibia 202.735001
lfoot -177.050995 33.448902
ltoes 35.023602
473
root 10.899300 17.383101 29.992001 3.935690 4.510280 3.240170
lowerback -67.911102 -41.287197 -40.257801
upperback 18.629499 -52.466999 16.066700
thorax 62.763298 -27.714600 32.784801
lowerneck -238.381012 -31.538200 -103.472992
upperneck 235.783997 -36.556698 106.497002
head 121.240997 -11.794700 51.711601
rclavicle 0.000000 -0.000000
rhumerus -438.484009 89.211395 -856.491028
rradius 391.119995
rwrist -194.006989
rhand -271.601013 -322.776978
rfingers 71.250198
rthumb -5.746740 -622.567017
lclavicle 0.000000 -0.000000
lhumerus -76.218903 -209.018005 831.326965
lradius 284.365997
lwrist 69.971703
lhand -154.230011 -248.826004
lfingers 71.250198
lthumb 107.567993 48.219799
rfemur -346.726013 18.681000 151.363007
rtibia 437.382996
rfoot -196.208984 -99.697906
rtoes -174.459000
lfemur -41.883202 27.168600 -287.169983
ltibia 193.820984
lfoot -177.761002 34.546600
ltoes 35.230400
474
root 10.904900 17.375200 30.113400 3.923110 4.437870 3.258730
lowerback -62.843201 -41.118999 -39.623100
upperback 14.816299 -52.503799 16.362900
thorax 55.818600 -27.553200 33.242401
lowerneck -233.381012 -30.654400 -101.705002
upperneck 237.140015 -35.481201 102.787003
head 120.526001 -11.758200 50.132298
rclavicle 0.000000 -0.000000
rhumerus -447.787018 91.981003 -858.374023
rradius 391.123993
rwrist -202.308990
rhand -309.887024 -296.105011
rfingers 71.250198
rthumb -42.722202 -595.473999
lclavicle 0.000000 -0.000000
lhumerus -79.600800 -208.817993 833.012024
lradius 288.886993
lwrist 70.203102
lhand -153.781006 -249.398010
lfingers 71.250198
lthumb 108.001007 47.625698
rfemur -350.730011 24.585199 148.851990
rtibia 421.399994
rfoot -198.421005 -96.167900
rtoes -163.231995
lfemur -31.108200 24.660799 -287.359985
ltibia 182.651993
lfoot -177.110992 37.403301
ltoes 29.347301
